<svg xmlns="http://www.w3.org/2000/svg" width="165" height="36" viewBox="0 0 165 36" fill="none"><mask id="mask0" maskUnits="userSpaceOnUse" x="4" y="6" width="25" height="24"><path fill-rule="evenodd" clip-rule="evenodd" d="M4.5 6.14374H28.2813V29.8922H4.5V6.14374Z" fill="white"></path></mask><g mask="url(#mask0)"><path fill-rule="evenodd" clip-rule="evenodd" d="M7.66749 10.6017C9.51819 13.0764 11.3962 15.5296 13.2556 17.9972C11.4121 20.4748 9.52251 22.9179 7.67613 25.394C11.897 25.4113 16.1165 25.394 20.3375 25.4027C22.2371 22.948 24.0676 20.4403 25.9802 17.9943L25.9442 17.9957C24.0806 15.5282 22.2083 13.0664 20.3475 10.5988C16.1208 10.6017 11.8942 10.5945 7.66749 10.6017ZM4.5 6.14374H28.2814C28.2814 14.0594 28.2814 21.9751 28.2799 29.8908C20.3533 29.8922 12.4266 29.8908 4.5 29.8922V6.14374Z" fill="#790008"></path></g><path fill-rule="evenodd" clip-rule="evenodd" d="M36.3401 13.0836C37.7562 11.3202 39.9336 10.1878 42.1959 10.0599C44.3387 9.89462 46.519 10.6462 48.1294 12.0618C47.4026 12.7933 46.6744 13.5205 45.9419 14.2462C44.7028 13.2431 42.9816 12.8479 41.4389 13.2877C39.7177 13.7389 38.3362 15.2077 37.9519 16.938C37.4828 18.8163 38.1606 20.9504 39.7077 22.1404C41.4749 23.5847 44.2164 23.5114 45.9534 22.0527C46.6816 22.7812 47.4256 23.497 48.1351 24.2458C46.6974 25.4932 44.828 26.2434 42.9198 26.2662C40.515 26.3325 38.1059 25.2762 36.5359 23.4553C35.4378 22.2063 34.7384 20.6113 34.5815 18.9557C34.3614 16.869 35.0046 14.7061 36.3401 13.0836Z" fill="#EC3024"></path><path fill-rule="evenodd" clip-rule="evenodd" d="M51.0195 10.4911C52.0629 10.4911 53.1048 10.4925 54.1482 10.4896C54.151 15.6044 54.1482 20.7176 54.1496 25.8324C53.1062 25.8324 52.0629 25.8338 51.0195 25.8309C51.021 20.7176 51.0195 15.6044 51.0195 10.4911Z" fill="#EC3024"></path><path fill-rule="evenodd" clip-rule="evenodd" d="M57.8912 10.4551C58.9057 10.4522 59.9203 10.4609 60.9363 10.4508C62.7453 13.7001 64.5082 16.9782 66.3402 20.2161C68.1161 16.9567 69.9178 13.7131 71.6937 10.4537C72.7169 10.4566 73.7401 10.4537 74.7648 10.4551C74.759 15.5713 74.7749 20.686 74.7561 25.8022C73.7142 25.7864 72.6737 25.8051 71.6318 25.7921C71.639 22.7641 71.6318 19.7375 71.6361 16.7109C69.8416 19.7706 68.1319 22.8819 66.3057 25.9215C64.5615 22.8417 62.7698 19.7892 61.0184 16.7138C61.0241 19.7418 61.0198 22.7684 61.0212 25.7964C59.9779 25.7964 58.936 25.795 57.8926 25.7979C57.8883 20.6831 57.8926 15.5698 57.8912 10.4551Z" fill="#EC3024"></path><path fill-rule="evenodd" clip-rule="evenodd" d="M81.4568 19.4385C81.4568 20.6227 81.4553 21.8084 81.4568 22.994C82.4742 22.9954 83.4917 22.9926 84.5091 22.9969C84.9855 23.0112 85.4863 22.8777 85.8432 22.5486C86.5541 21.8644 86.5671 20.5897 85.8418 19.9114C85.4503 19.5406 84.8891 19.4443 84.3695 19.4371C83.3981 19.4357 82.4267 19.4371 81.4568 19.4385ZM81.4568 13.2934C81.4553 14.4072 81.4568 15.5209 81.4568 16.6347C82.3778 16.6318 83.3003 16.639 84.2228 16.6333C84.7595 16.6232 85.3395 16.5111 85.7324 16.1159C86.2908 15.5238 86.3052 14.525 85.8087 13.8898C85.4273 13.4314 84.797 13.2891 84.2256 13.292C83.3017 13.2934 82.3793 13.2934 81.4568 13.2934ZM78.3281 10.4896C80.4408 10.4924 82.5519 10.4896 84.6646 10.491C85.6417 10.5097 86.6448 10.7152 87.4795 11.2455C89.4957 12.4757 89.9591 15.6704 88.2753 17.3633C88.0594 17.5933 87.8033 17.783 87.5485 17.9669C88.5084 18.4715 89.2453 19.4069 89.4237 20.4848C89.6842 21.9391 89.3518 23.6092 88.2221 24.6352C87.3212 25.496 86.0404 25.8066 84.8257 25.8223C82.6599 25.8453 80.4926 25.8266 78.3267 25.8323C78.3281 20.7176 78.3238 15.6043 78.3281 10.4896Z" fill="#EC3024"></path><path fill-rule="evenodd" clip-rule="evenodd" d="M95.918 10.4565C96.4404 10.4623 96.9628 10.4379 97.4852 10.4637C97.724 10.6491 97.8577 10.9394 98.0493 11.1722C100.916 15.0827 103.76 19.0105 106.642 22.9092C106.639 18.7574 106.642 14.607 106.641 10.4551H108.26V25.7605C107.714 25.7605 107.169 25.7591 106.625 25.7634C103.597 21.6043 100.571 17.4439 97.5384 13.2877V25.7591C96.9943 25.7578 96.4504 25.7707 95.9092 25.7476C95.9336 20.6515 95.9136 15.554 95.918 10.4565Z" fill="#EC3024"></path><path fill-rule="evenodd" clip-rule="evenodd" d="M112.29 10.4551H113.909C113.909 15.5569 113.907 20.6573 113.909 25.7577C113.369 25.762 112.829 25.7591 112.291 25.7605C112.287 20.6587 112.291 15.5569 112.29 10.4551Z" fill="#EC3024"></path><path fill-rule="evenodd" clip-rule="evenodd" d="M120.562 19.8655C122.244 19.8727 123.928 19.8669 125.61 19.8684C124.767 17.4136 123.935 14.9549 123.106 12.4959C122.261 14.9533 121.399 17.405 120.562 19.8655ZM116.401 25.8639C118.268 20.7607 120.136 15.6576 122.015 10.5601C122.764 10.5672 123.51 10.5616 124.259 10.563C126.039 15.6289 127.816 20.6975 129.602 25.7606C128.966 25.7592 128.33 25.7619 127.695 25.7592C127.222 24.4038 126.741 23.05 126.254 21.6993C124.139 21.7007 122.027 21.7007 119.914 21.7007C119.442 23.0875 118.989 24.483 118.515 25.8697C117.81 25.8639 117.105 25.8727 116.401 25.8639Z" fill="#EC3024"></path><path fill-rule="evenodd" clip-rule="evenodd" d="M133.196 13.0678C134.474 11.7543 136.183 10.8101 138.027 10.6405C140.299 10.412 142.561 11.2542 144.399 12.5461C144.041 13.0103 143.664 13.4587 143.309 13.9243C142.697 13.0549 141.613 12.7301 140.636 12.4671C138.936 12 137.008 12.253 135.573 13.3064C134.277 14.2836 133.41 15.7682 133.066 17.3418C132.872 18.9687 133.033 20.7448 134 22.1217C134.333 22.642 134.862 22.9768 135.316 23.3806C136.277 24.1637 137.538 24.5188 138.767 24.5073C140.279 24.5217 141.776 24.1351 143.159 23.5415C143.157 21.9694 143.162 20.3972 143.157 18.8249C141.959 18.8264 140.76 18.8264 139.561 18.8249C139.561 18.3478 139.561 17.8707 139.56 17.3936C141.262 17.3835 142.965 17.3936 144.668 17.3878C144.671 19.8194 144.668 22.2496 144.67 24.6812C143.045 25.5866 141.183 25.966 139.35 26.1485C137.408 26.1888 135.38 25.6914 133.869 24.4254C132.393 23.2139 131.531 21.3701 131.278 19.5018C131.083 17.2283 131.662 14.8067 133.196 13.0678Z" fill="#EC3024"></path><mask id="mask1" maskUnits="userSpaceOnUse" x="147" y="10" width="14" height="16"><path fill-rule="evenodd" clip-rule="evenodd" d="M147.266 10.5571H160.373V25.8705H147.266V10.5571Z" fill="white"></path></mask><g mask="url(#mask1)"><path fill-rule="evenodd" clip-rule="evenodd" d="M153.963 12.5059C153.129 14.9648 152.258 17.4108 151.43 19.8726C153.107 19.864 154.785 19.8697 156.461 19.8697C155.645 17.4093 154.799 14.959 153.963 12.5059ZM147.266 25.8481C149.141 20.7564 151.007 15.6618 152.868 10.5643C153.616 10.56 154.365 10.5686 155.115 10.5571C156.834 15.3931 158.515 20.2434 160.229 25.0822C160.31 25.2992 160.354 25.5262 160.373 25.759C159.77 25.7619 159.17 25.759 158.57 25.7619C158.082 24.411 157.607 23.0544 157.126 21.702C155.005 21.6992 152.884 21.6977 150.764 21.7035C150.309 23.0932 149.837 24.4771 149.38 25.8654C148.675 25.8611 147.969 25.8884 147.266 25.8481Z" fill="#EC3024"></path></g><path fill-rule="evenodd" clip-rule="evenodd" d="M7.66699 10.6017C11.8937 10.5945 16.1203 10.6017 20.347 10.5988C22.2078 13.0664 24.0801 15.5282 25.9437 17.9957C21.7142 18.0043 17.4846 18 13.2551 17.9972C11.3957 15.5296 9.51769 13.0764 7.66699 10.6017Z" fill="white"></path><path fill-rule="evenodd" clip-rule="evenodd" d="M13.2552 17.9971C17.4848 18 21.7143 18.0043 25.9439 17.9957L25.9799 17.9943C24.0673 20.4403 22.2367 22.948 20.3371 25.4026C16.1162 25.394 11.8967 25.4113 7.67578 25.394C9.52217 22.9179 11.4117 20.4747 13.2552 17.9971Z" fill="#ED3024"></path></svg>