<svg xmlns="http://www.w3.org/2000/svg" width="108" height="36" viewBox="0 0 108 36" fill="none"><path fill-rule="evenodd" clip-rule="evenodd" d="M104.789 25.5551C104.788 22.8676 104.781 20.1799 104.796 17.4925C104.799 17.1282 104.621 16.7068 105 16.4042V25.5531C104.93 25.5538 104.859 25.5544 104.789 25.5551Z" fill="#60B3F0"></path><path fill-rule="evenodd" clip-rule="evenodd" d="M74.1443 20.5651C74.1443 19.1837 74.0723 17.7975 74.1583 16.4213C74.3711 13.026 77.2472 10.3888 80.568 10.4649C83.8307 10.5398 86.6236 13.2743 86.7145 16.6034C86.79 19.3656 86.7252 22.1311 86.7536 24.8949C86.7596 25.459 86.5645 25.5979 86.0229 25.6181C83.57 25.7085 83.5706 25.7262 83.5704 23.3173C83.5702 21.2617 83.587 19.2064 83.5642 17.1513C83.543 15.1971 82.2877 13.8134 80.5176 13.7371C78.8174 13.6639 77.3805 14.9294 77.2919 16.8507C77.1724 19.4319 77.2118 22.0226 77.2489 24.6081C77.2602 25.3919 77.059 25.6381 76.2508 25.6254C74.1042 25.5913 74.1035 25.6315 74.1035 23.4356V20.5651H74.1443Z" fill="#108DE8"></path><mask id="mask0" maskUnits="userSpaceOnUse" x="3" y="3" width="30" height="30"><path fill-rule="evenodd" clip-rule="evenodd" d="M3 3H32.2191V32.9999H3V3Z" fill="white"></path></mask><g mask="url(#mask0)"><path fill-rule="evenodd" clip-rule="evenodd" d="M25.355 22.9682C23.5983 21.9797 21.7478 22.0995 19.9025 22.6535C18.2112 23.161 16.5535 23.7835 14.8552 24.264C13.1409 24.7488 11.4305 24.7316 9.80425 23.8522C9.40624 23.6369 9.09429 23.3876 9.09429 22.8914C9.0945 20.0608 9.0945 17.2301 9.0945 14.1244C11.7329 16.0218 14.206 15.3993 16.6829 14.445C18.1332 13.8865 19.5735 13.302 21.0874 12.9229C21.8237 12.7384 22.5657 12.7254 23.3018 12.8144C25.4651 13.0757 26.1455 13.8618 26.1453 16.0214C26.1449 18.1482 26.1332 20.275 26.1515 22.4016C26.1568 23.0295 26.1089 23.3925 25.355 22.9682ZM24.1272 4.58757C22.6095 3.80736 20.9664 3.48012 19.3625 2.99991H15.75C15.6684 3.07119 15.5745 3.1031 15.4648 3.10927C11.782 3.31608 8.93109 5.14225 6.56192 7.80863C4.49855 10.1303 3.26329 12.8516 3 15.9786V20.0212C3.0714 20.1031 3.10157 20.1974 3.10922 20.3067C3.38229 24.1565 5.2423 27.1827 8.05282 29.6767C10.1848 31.5686 12.6766 32.7184 15.5375 32.9999H19.3625C19.4768 32.9365 19.585 32.8342 19.7063 32.8148C26.239 31.7723 31.0109 26.8316 32.0609 20.0152C33.0037 13.892 29.6554 7.42948 24.1272 4.58757Z" fill="#108DE8"></path></g><path fill-rule="evenodd" clip-rule="evenodd" d="M101.779 18.6602C101.788 19.1328 101.476 19.1419 101.138 19.1408C100.288 19.1379 99.4375 19.1398 98.5875 19.1398C97.7375 19.1398 96.8875 19.1402 96.0375 19.1396C95.7511 19.1394 95.4296 19.1638 95.4389 18.743C95.4617 17.7219 95.2817 16.6825 95.6914 15.694C96.1912 14.4889 97.4449 13.6757 98.7101 13.7338C100.012 13.7938 101.159 14.6657 101.574 15.9159C101.872 16.8132 101.76 17.7415 101.779 18.6602ZM105 16.1915C104.794 16.1066 104.826 15.9147 104.792 15.7472C104.148 12.5506 101.402 10.32 98.2973 10.4694C95.2086 10.6183 92.5251 13.1047 92.3211 16.3283C92.1382 19.223 92.1337 22.1455 92.3167 25.0389C92.3932 26.2477 93.6892 25.3813 94.4015 25.573C94.7693 25.6721 95.4663 25.8819 95.4342 24.9979C95.4096 24.3253 95.4498 23.6506 95.4238 22.9783C95.4062 22.5257 95.5581 22.3547 96.0275 22.3606C97.7261 22.3823 99.4254 22.384 101.124 22.36C101.638 22.3528 101.756 22.5489 101.798 23.0377C101.871 23.8828 101.329 25.064 102.081 25.4894C102.775 25.8813 103.87 25.5615 104.788 25.5551C105.013 23.6981 104.822 21.8336 104.894 19.974C104.94 18.7842 104.752 17.5877 105 16.4042V16.1915Z" fill="#108DE8"></path><path fill-rule="evenodd" clip-rule="evenodd" d="M63.0974 19.1405C62.7789 19.1405 62.4606 19.1405 62.142 19.1403C61.3281 19.1399 60.5141 19.1407 59.7002 19.1392C59.4167 19.1388 59.0818 19.1709 59.0912 18.7524C59.1143 17.7329 58.9188 16.6937 59.3304 15.7052C59.8557 14.4441 61.132 13.6435 62.4423 13.748C63.8512 13.8603 64.961 14.8209 65.2857 16.2092C65.8878 18.7826 65.6206 19.1405 63.0974 19.1405ZM68.4832 16.249C68.1987 13.0924 65.626 10.6377 62.5439 10.4697C59.5249 10.305 56.7798 12.4477 56.0832 15.5282C55.7026 17.2109 56.0118 18.922 55.9047 20.3246C55.9047 21.9997 55.9338 23.3833 55.8915 24.765C55.8724 25.3948 56.0267 25.6167 56.7058 25.6233C59.058 25.6458 59.0578 25.6758 59.0786 23.3469C59.0797 23.2405 59.0903 23.1326 59.0776 23.028C59.0153 22.5216 59.2284 22.3443 59.7376 22.3597C60.7637 22.3909 61.7925 22.3388 62.8182 22.378C63.6542 22.4099 64.695 22.0082 65.2683 22.5603C65.7562 23.0301 65.3731 24.0441 65.4234 24.8154C65.4305 24.9214 65.4309 25.0282 65.429 25.1343C65.423 25.4312 65.5492 25.599 65.8629 25.5988C66.6064 25.598 67.3502 25.5956 68.0937 25.6026C68.5472 25.6071 68.5946 25.3148 68.5884 24.9656C68.5364 22.0599 68.7444 19.148 68.4832 16.249Z" fill="#108DE8"></path><path fill-rule="evenodd" clip-rule="evenodd" d="M43.1751 22.3592C40.8672 22.4773 40.8672 22.4773 40.8672 20.1705C40.8672 19.4626 40.8672 18.7547 40.8665 18.0466C40.8661 16.8435 40.8646 15.6398 40.8672 14.4366C40.8678 14.1245 40.8168 13.8277 41.2705 13.7094C43.7954 13.0501 46.4874 14.5805 47.1024 17.0537C47.7456 19.6396 45.8331 22.2232 43.1751 22.3592ZM44.3292 10.6294C42.2969 10.2622 40.2382 10.5305 38.1924 10.4662C37.5452 10.4458 37.7073 10.9496 37.7056 11.3018C37.6946 13.532 37.7001 15.762 37.7001 17.9922C37.7001 20.2224 37.73 22.453 37.6833 24.6822C37.6676 25.4435 37.926 25.6471 38.651 25.6228C40.205 25.5705 41.7637 25.6479 43.3167 25.5822C47.0709 25.4232 50.1233 22.4047 50.3729 18.6654C50.6364 14.7173 48.0901 11.3092 44.3292 10.6294Z" fill="#108EE8"></path></svg>