<svg xmlns="http://www.w3.org/2000/svg" width="52" height="48" viewBox="0 0 52 48" fill="none"><path fill-rule="evenodd" clip-rule="evenodd" d="M21.5112 5.8986C21.275 6.91013 20.3775 7.66282 19.4377 7.66282C18.4982 7.66282 17.7776 6.84283 18.0141 5.83151C18.2503 4.81999 19.0283 4 20.1432 4C21.0828 4 21.7475 4.88708 21.5112 5.8986ZM34.3564 4.55615H37.2784C37.3872 4.55615 37.4708 4.65368 37.4559 4.76301L35.6377 18.1313C35.6242 18.2305 35.5406 18.3044 35.4418 18.3044H32.557C32.437 18.3044 32.3448 18.197 32.3613 18.0764L34.1789 4.71332C34.1912 4.62324 34.2669 4.55615 34.3564 4.55615ZM8.36414 5.0835H11.148C11.36 5.0835 11.5228 5.27421 11.4926 5.48707L10.1997 14.5898C10.1499 14.9401 10.4178 15.2538 10.7665 15.2538H15.6502C15.7889 15.2538 15.8952 15.3789 15.875 15.5181L15.4961 18.1325C15.4765 18.2683 15.3617 18.3692 15.2262 18.3692H9.70415C8.06157 18.3692 6.48632 17.0019 6.71809 15.3514L8.01914 5.39037C8.04199 5.21478 8.1895 5.0835 8.36414 5.0835ZM17.6458 8.71574L16.3715 17.999C16.3513 18.1462 16.4639 18.2777 16.6104 18.2777H19.3043C19.4959 18.2777 19.6583 18.1344 19.6848 17.9419L20.9467 8.80955C20.9736 8.59917 20.8122 8.4126 20.6031 8.4126H17.989C17.816 8.4126 17.6697 8.54201 17.6458 8.71574ZM21.5642 18.0528C22.0221 17.7742 22.4126 17.5366 23.2027 17.5656C24.0706 17.5975 24.7292 18.2319 24.7292 18.2319L25.7528 10.8866C27.1367 10.6423 27.8589 10.9471 28.0996 11.344C28.3404 11.7418 28.22 12.7494 28.0697 13.665C27.9485 14.4053 27.5912 16.9545 27.458 17.9108C27.4311 18.1046 27.5794 18.2773 27.7724 18.2773H30.4065C30.5508 18.2773 30.6732 18.1702 30.695 18.0249C30.8382 17.0686 31.3456 13.646 31.4999 12.2607C31.6808 10.6423 31.0202 8.15145 27.6102 8.16263C24.2695 8.17361 23.5981 8.41505 23.1644 8.83705C22.8492 9.14318 22.7434 9.70548 22.6636 10.1295L22.6636 10.1295L22.6636 10.1296C22.6497 10.2035 22.6366 10.2731 22.6233 10.3364C22.5386 10.7371 21.6105 17.2595 21.4922 18.0965L21.5642 18.0528ZM39.9214 8.68557L36.6191 12.6105L39.8549 19.7637C39.9121 19.8898 40.0363 19.9708 40.1732 19.9708H42.7935C43.0619 19.9708 43.2399 19.6879 43.1266 19.4407L40.04 12.7031L43.4165 8.89989C43.5565 8.74231 43.4463 8.49072 43.237 8.49072H40.3381C40.1777 8.49072 40.0255 8.56195 39.9214 8.68557ZM22.4084 22.4079C23.3482 22.4079 24.2457 21.6552 24.4819 20.6437C24.7182 19.6322 24.0535 18.7451 23.1139 18.7451C21.999 18.7451 21.221 19.5651 20.9848 20.5766C20.7483 21.588 21.4689 22.4079 22.4084 22.4079ZM38.6173 32.7316C38.4182 33.7311 37.5113 34.4747 36.5234 34.474C35.5353 34.4736 34.7378 33.6627 34.9369 32.6634C35.1361 31.6639 35.914 30.8539 37.0863 30.8545C38.0742 30.8551 38.8164 31.732 38.6173 32.7316ZM18.0311 32.734L16.057 20.7414C15.9707 20.2171 15.5235 19.833 14.9998 19.833H13.0189C12.4148 19.833 11.8664 20.191 11.6163 20.7491L6.29842 32.7489C6.2213 32.923 6.34738 33.1195 6.53529 33.1185L9.29836 33.1021C9.48749 33.1011 9.65764 32.986 9.7315 32.8095L10.65 30.6165C10.6749 30.5566 10.7326 30.5179 10.7967 30.5179H14.1406C14.2226 30.5179 14.2914 30.5811 14.2993 30.6639L14.4989 32.7391C14.5219 32.9806 14.7221 33.1649 14.9612 33.1649H17.6714C17.8969 33.1649 18.0682 32.9595 18.0311 32.734ZM13.7452 27.7536H11.9761C11.9104 27.7536 11.8653 27.6865 11.8894 27.6243L13.4289 23.6582C13.4583 23.5826 13.5681 23.5987 13.5752 23.6795L13.9212 27.5579C13.9306 27.6629 13.8492 27.7536 13.7452 27.7536ZM16.7119 34.9063L17.3501 36.9072C17.4648 37.2365 17.5513 37.3096 17.7755 37.2615C18.5816 37.089 20.5294 36.5049 21.4824 35.1964C22.5311 33.7565 22.8159 31.3831 23.0111 29.7563C23.0472 29.456 23.0802 29.181 23.1144 28.9422C23.2949 27.6797 23.6903 24.572 23.8242 23.5157C23.8482 23.3256 23.7023 23.1577 23.5134 23.1577H21.0364C20.8175 23.1577 20.6324 23.3217 20.6031 23.5418C20.4033 25.0337 19.6839 30.3987 19.5583 31.1423C19.5412 31.2432 19.5258 31.3493 19.5098 31.4592C19.3886 32.2915 19.2359 33.3407 18.1217 33.9979C17.6768 34.2602 17.3851 34.3725 17.1644 34.4575C17.0728 34.4927 16.9935 34.5232 16.9205 34.5578L16.9154 34.5602C16.79 34.6196 16.6514 34.6853 16.7119 34.9063ZM33.9208 23.5165C33.8323 23.494 33.7375 23.4687 33.6359 23.4416C32.7785 23.2129 31.4421 22.8563 29.4237 23.0065C27.3409 23.1614 24.9889 24.1392 24.5484 28.3122C24.108 32.4852 25.9876 33.2901 28.6895 33.4094C30.6695 33.4968 32.2235 32.9439 32.9127 32.6422C33.1527 32.5372 33.3197 32.3121 33.3548 32.0494L34.3531 24.0149C34.3923 23.696 34.2352 23.5962 33.9208 23.5165ZM30.3441 30.2864C30.3441 30.2864 29.0524 30.7322 28.4324 30.2601C27.8122 29.7882 27.7605 28.8181 28.1223 27.4285C28.484 26.0386 29.3882 25.8028 29.7757 25.7765C30.1633 25.7502 30.8919 25.9363 30.8919 25.9363L30.3441 30.2864ZM35.8472 29.524L36.5741 21.8304C36.6002 21.5548 36.8281 21.4424 37.1009 21.4424H39.6085C39.8421 21.4424 39.9411 21.6223 39.8766 21.917L38.3461 29.6209C38.315 29.77 38.1857 29.8767 38.0355 29.8767H36.1628C35.9757 29.8767 35.8292 29.7131 35.8472 29.524ZM8.13104 43.9375C7.57895 44.0702 6.99892 43.9892 6.50233 43.7107L4 42.3072C4 42.3072 11.7532 40.1432 25.6447 38.7662C39.5359 37.3891 48 38.5694 48 38.5694L47.9749 38.585C47.9749 38.585 38.4254 38.5771 25.4917 40.4747C16.6679 41.7692 11.8318 43 9.24517 43.6583C8.81396 43.7681 8.44527 43.8619 8.13104 43.9375Z" fill="#E82529"></path></svg>