<svg xmlns="http://www.w3.org/2000/svg" width="80" height="36" viewBox="0 0 80 36" fill="none"><path fill-rule="evenodd" clip-rule="evenodd" d="M35.0481 10.5053C36.8864 14.8392 38.6925 19.0975 40.5304 23.4307C40.9166 22.4977 41.2772 21.6348 41.6315 20.7693C42.9689 17.5026 44.3042 14.2351 45.6406 10.968C45.8296 10.506 45.8304 10.5059 45.3215 10.5054C44.8269 10.5049 44.3319 10.4954 43.8377 10.5096C43.6094 10.5161 43.5223 10.4549 43.5249 10.2119C43.5365 9.12276 43.5369 8.03336 43.5246 6.94422C43.5218 6.69867 43.6131 6.6496 43.837 6.65022C46.1454 6.65676 48.4538 6.65766 50.7621 6.64915C51.0125 6.64825 51.1007 6.71407 51.0922 6.97181C51.0742 7.52336 51.0801 8.07589 51.0901 8.62781C51.0938 8.83198 51.017 9.00321 50.9407 9.18151C48.0351 15.9743 45.128 22.7665 42.2342 29.5644C42.1 29.8798 41.9366 29.9549 41.6093 29.9619C39.6069 30.0054 38.2676 29.0987 37.4774 27.2755C35.1083 21.8082 32.7122 16.3525 30.3387 10.887C30.2122 10.5956 30.0714 10.481 29.7507 10.4977C29.2125 10.5256 28.6716 10.4954 28.1323 10.5097C27.8933 10.516 27.8213 10.4269 27.8229 10.199C27.8305 9.12473 27.8417 8.05001 27.8176 6.97628C27.8093 6.60643 28.0209 6.65363 28.2467 6.65372C30.7949 6.65443 33.3431 6.65416 35.8914 6.65416C36.2811 6.65416 36.6713 6.66473 37.0604 6.65013C37.2888 6.64163 37.379 6.7087 37.3768 6.94995C37.3666 8.02413 37.3633 9.09858 37.3784 10.1727C37.3825 10.4674 37.2597 10.5164 37.0027 10.5102C36.3746 10.4951 35.7458 10.5053 35.0481 10.5053Z" fill="#4C3493"></path><path fill-rule="evenodd" clip-rule="evenodd" d="M68.2749 25.0281C64.4151 27.4109 59.2943 25.6181 57.6808 21.2839C56.5135 18.1476 56.8088 15.1093 58.998 12.4849C62.4848 8.30465 69.0562 9.33647 71.2496 14.3457C71.7614 15.5141 71.9984 16.6703 71.9977 18.4989C71.9177 20.9488 70.8756 23.4224 68.2749 25.0281ZM64.5532 6.00002C57.5018 6.01355 52.6532 11.5006 52.6232 17.8135C52.5902 24.731 57.7391 29.9522 64.5311 29.9522C71.2413 29.9522 76.4164 24.7605 76.4535 17.9914C76.4902 11.2998 71.2505 5.98713 64.5532 6.00002Z" fill="#4C3493"></path><path fill-rule="evenodd" clip-rule="evenodd" d="M19.8316 24.1537C18.5378 25.3837 16.814 26.0516 14.9338 26.0515C11.3443 26.0511 8.35494 23.5469 7.64396 19.9064C7.15096 17.382 7.50704 14.9981 9.05549 12.8851C12.0403 8.81207 18.0477 8.91676 20.9282 13.0722C23.2556 16.4297 22.7673 21.3629 19.8316 24.1537ZM14.9399 6.00174C8.01911 5.99932 3.01931 11.3701 3.00006 17.9462C2.98017 24.7233 8.18644 29.9522 14.916 29.9522C21.245 30.0236 26.8158 25.114 26.8307 17.9949C26.845 11.2054 21.6618 6.00407 14.9399 6.00174Z" fill="#4C3493"></path></svg>