<svg xmlns="http://www.w3.org/2000/svg" width="512" height="130" viewBox="0 0 511 130"><defs><clipPath id="a"><path d="M397.16 44.547h52.582V104H397.16Zm0 0"/></clipPath><clipPath id="b"><path d="m397.758 42.281-.133 2.61 49.988 58.738 1.793.289.227-.113.875-1.625-21.317-71.47-3.617-2.444Zm0 0"/></clipPath><clipPath id="c"><path d="M412.477 28.188h16.843V45.57h-16.843Zm0 0"/></clipPath><clipPath id="d"><path d="m397.758 42.281-.133 2.61 49.988 58.738 1.793.289.227-.113.875-1.625-21.317-71.47-3.617-2.444Zm0 0"/></clipPath><clipPath id="e"><path d="M397.16 42h15.824v6H397.16Zm0 0"/></clipPath><clipPath id="f"><path d="m397.758 42.281-.133 2.61 49.988 58.738 1.793.289.227-.113.875-1.625-21.317-71.47-3.617-2.444Zm0 0"/></clipPath><clipPath id="g"><path d="M418 30.23h32.762V104H418Zm0 0"/></clipPath><clipPath id="h"><path d="m397.758 42.281-.133 2.61 49.988 58.738 1.793.289.227-.113.875-1.625-21.317-71.47-3.617-2.444Zm0 0"/></clipPath><clipPath id="i"><path d="M454.336 45.57h56.152v81.809h-56.152Zm0 0"/></clipPath><clipPath id="j"><path d="m475.156 28.418-21.379 96.656.758 1.813.356.16 2.421-.637 53.043-80.476-.058-4.2-32.32-14.882Zm0 0"/></clipPath><clipPath id="k"><path d="M453.316 28.188h29.606v99.19h-29.606Zm0 0"/></clipPath><clipPath id="l"><path d="m475.156 28.418-21.379 96.656.758 1.813.356.16 2.421-.637 53.043-80.476-.058-4.2-32.32-14.882Zm0 0"/></clipPath><clipPath id="m"><path d="M487.516 41.48h22.972V48h-22.972Zm0 0"/></clipPath><clipPath id="n"><path d="m475.156 28.418-21.379 96.656.758 1.813.356.16 2.421-.637 53.043-80.476-.058-4.2-32.32-14.882Zm0 0"/></clipPath><clipPath id="o"><path d="M475 26.652h13v17.895h-13Zm0 0"/></clipPath><clipPath id="p"><path d="m475.156 28.418-21.379 96.656.758 1.813.356.16 2.421-.637 53.043-80.476-.058-4.2-32.32-14.882Zm0 0"/></clipPath><clipPath id="q"><path d="M428.3 1.086h19.4V12h-19.4Zm0 0"/></clipPath><clipPath id="r"><path d="m429.89 1.469-1.285 2.484 22.86 66.008 1.36.914.038.004 1.258-.734L473.945 3.8l-2.672-2.778Zm0 0"/></clipPath><clipPath id="s"><path d="M428.3 3.645H453V71h-24.7Zm0 0"/></clipPath><clipPath id="t"><path d="m429.89 1.469-1.285 2.484 22.86 66.008 1.36.914.038.004 1.258-.734L473.945 3.8l-2.672-2.778Zm0 0"/></clipPath><clipPath id="u"><path d="M452.293 3.645H474V71h-21.707Zm0 0"/></clipPath><clipPath id="v"><path d="m429.89 1.469-1.285 2.484 22.86 66.008 1.36.914.038.004 1.258-.734L473.945 3.8l-2.672-2.778Zm0 0"/></clipPath><clipPath id="w"><path d="M447.188 1H474v11h-26.812Zm0 0"/></clipPath><clipPath id="x"><path d="m429.89 1.469-1.285 2.484 22.86 66.008 1.36.914.038.004 1.258-.734L473.945 3.8l-2.672-2.778Zm0 0"/></clipPath></defs><path d="M267.379 122.152c.043-.789.09-2.05.129-3.785V85.176l-.106-3.223q-.04-1.025-.093-1.394a3 3 0 0 0-.168-.684c-.246-.82-.797-1.395-1.625-1.742-.762-.324-1.891-.477-3.352-.488v-1.13h18.926q4.125.006 7.453.544c2.215.355 4 .843 5.367 1.468 3.957 1.883 5.91 5.043 5.887 9.543.047 6.434-4.176 10.54-12.918 11.602l-1.465.234c1.965.07 4.625.727 5.863 1.016 1.227.281 2.43.734 3.61 1.348 4.64 2.335 6.926 6.07 6.883 11.234.023 6.27-3.032 10.348-9.227 12.273-1.356.387-3.05.696-5.106.918a65 65 0 0 1-6.703.34H262.16v-1.129c2.188-.031 3.692-.363 4.356-1.148.27-.25.476-.559.609-.899s.21-.921.254-1.707m5.828-44.086v21.067h7.387c8.586-.051 13.035-3.625 13.082-10.778.058-6.945-4.63-10.335-13.715-10.289Zm21.95 34.875c-.052-4.914-1.825-8.382-5.36-10.324-1.07-.547-2.434-.972-4.074-1.27q-2.45-.443-5.41-.452h-7.106v24.585h7.106c5.144.024 8.906-.937 11.222-2.957 1.176-.964 2.067-2.277 2.688-3.925.617-1.649.922-3.535.933-5.657" style="stroke:none;fill-rule:evenodd;fill:#3a3a3a;fill-opacity:1"/><path d="M328.852 125.594c-.383-.762-.653-1.668-.77-3.98l-.031-.684-.457.511a17 17 0 0 1-1.59 1.594c-.524.457-1.129.926-1.809 1.395q-2.244 1.644-4.312 2.324-2.074.674-4.668.656c-3.02.012-5.336-.707-6.992-2.117-.93-.836-1.653-1.883-2.188-3.156q-.791-1.905-.816-4.102c.039-5.402 3.351-8.89 10.129-10.437 1.875-.43 3.77-.774 5.68-1.024 2-.265 4.261-.488 6.796-.66l.258-4.715c.004-1.61-.074-2.918-.23-3.91q-.236-1.52-.782-2.629c-1.004-1.965-3.054-2.906-6.02-2.906-4.75-.024-7.327 2.246-7.593 6.75-.027.719-.098 1.219-.191 1.527-.09.285-.243.496-.465.653-.469.32-1.223.504-2.305.515-2.328.035-3.203-.66-3.164-1.828.016-1.223.422-2.402 1.234-3.543q1.218-1.712 3.407-2.984c2.632-1.461 6.004-2.203 10.136-2.219 4.52.016 7.551 1.04 9.207 3 .672.828 1.172 1.844 1.493 3.078.32 1.234.488 2.8.484 4.703l-.008.403-.035 1.843-.098 4.868-.07 6.695-.07 3.238c.004 1.527.07 2.692.175 3.992.106 1.266.56 2.68 1.57 3.055 1.055.395 2.071.547 4.005.559 1.418-.028 2.515-.192 3.254-.504.847-.36 1.367-1.125 1.59-2.211q.328-1.584.289-4.82V99.628c.05-2.57-.247-4.379-.98-5.324-.716-.926-2.044-1.325-3.872-1.305v-1.004l10.062-.734v8.027l.524-.934c1.492-2.656 3.18-4.535 5.058-5.668 1.883-1.128 4.239-1.683 7.079-1.656 4.265-.058 7.238 1.371 8.976 4.239.637.953 1.102 2.109 1.38 3.46q.414 2.032.41 5.196v14.597c-.032 2.176.062 3.797.273 4.852.215 1.082.726 1.844 1.574 2.195.703.29 2.34.446 3.734.485 1.305-.04 2.317-.2 3.004-.504.828-.364 1.324-1.125 1.535-2.211.207-1.055.293-2.664.27-4.817V84.195q.036-2.95-.254-4.363c-.207-.98-.711-1.66-1.54-1.95-.714-.253-1.792-.37-3.202-.374V76.5l10.469-.535a241 241 0 0 0-.301 7.14 245 245 0 0 0-.106 6.657v23.058l11.532-12.656c1.632-1.809 2.523-3.328 2.535-4.547.082-1.695-1.625-2.46-4.43-2.601v-1h14.98v1.015c-.898.106-1.683.27-2.347.5-.723.246-1.469.606-2.227 1.063a24 24 0 0 0-1.933 1.281q-.798.597-1.883 1.7c-.723.734-1.766 1.847-3.137 3.343l-3.808 4.102 9.964 15.695c1.137 1.863 2.184 3.176 3.145 3.922.918.71 2.086 1.172 3.496 1.39v1.024h-9.113a64 64 0 0 0-1.032-1.985l-1.449-2.644-1.11-1.996-7.374-12.035-5.793 6.492-.016 3.64c-.023 2.153.063 3.762.27 4.817.215 1.086.722 1.851 1.555 2.21.734.317 1.824.481 3.242.509v.992h-30.797v-.996c2.086-.055 3.515-.395 4.09-1.16.234-.301.414-.641.527-1.008.125-.38.2-.867.234-1.465.04-.473.082-1.152.13-2.05.05-.895.077-1.517.081-1.845v-14.18c.012-3.495-.363-6.081-1.152-7.73-1.2-2.586-3.367-3.883-6.441-3.894-3.43-.012-6.164 1.62-8.188 4.851q-1.143 1.835-1.781 4.16a17.3 17.3 0 0 0-.653 4.586v12.203c-.027 2.176.063 3.797.274 4.852.215 1.082.726 1.844 1.574 2.195.742.305 1.844.461 3.285.489v.992h-15.144c-1.344.043-3.903.113-5.172.097-1.328-.02-1.969-.16-3.184-.25-1.078-.316-1.531-.597-1.886-1.304m-17.86-7.77c.028 2.297.586 4.164 1.7 5.574 1.117 1.415 2.624 2.141 4.488 2.176a10.9 10.9 0 0 0 5.332-1.472q2.492-1.436 3.918-3.809.867-1.52 1.265-3.883.392-2.35.387-5.844v-3.617c-3.371.293-5.785.61-7.535.985-1.77.37-3.328.906-4.688 1.605-3.222 1.606-4.84 4.387-4.867 8.285" style="stroke:none;fill-rule:nonzero;fill:#3a3a3a;fill-opacity:1"/><path d="M14.672 105.77v12.566q-.037 3.029.348 4.492.386 1.464 1.675 1.938t3.961.53v1.755H.953v-1.754q2.52-.058 3.727-.531 1.208-.474 1.566-1.938t.316-4.492v-33.04c.028-2.019-.078-3.515-.308-4.495q-.34-1.47-1.5-1.953c-.774-.328-1.953-.52-3.555-.578v-1.758h18.774c6.328-.028 10.96 1.093 13.906 3.355s4.398 5.828 4.367 10.7c.016 6.843-2.644 11.328-7.984 13.445-1.395.547-3.172.972-5.332 1.285q-3.239.46-7.203.473Zm0-1.961h3.242q5.846-.02 8.606-2.77 1.499-1.593 2.277-4.172.774-2.58.781-5.898-.034-12.48-10.914-12.496h-3.992Zm55.297 4.082h-22.93c.027 2.449.168 4.504.434 6.164q.386 2.485 1.254 4.543 2.853 6.668 8.824 6.668c2.258-.012 4.3-.676 6.136-1.993 1.833-1.32 3.356-3.21 4.575-5.683l1.625 1.078q-2.399 4.77-5.852 7.008c-2.3 1.492-5.113 2.23-8.43 2.219-5.218-.07-10.02-1.743-13.027-5.012q-4.505-4.907-4.598-13.445c.063-5.731 1.543-10.266 4.45-13.606 2.898-3.336 7.535-5.043 12.527-5.117 3.324.012 6.531.765 8.805 2.273q3.41 2.263 5.039 6.617.526 1.449.8 3.31.275 1.862.368 4.976m-22.864-1.954h14.34c-.054-2.078-.168-3.75-.332-5.019q-.241-1.899-.77-3.398c-1.21-3.54-3.073-5.29-5.577-5.254q-4.22.036-6.301 5.925a22 22 0 0 0-.848 3.344q-.324 1.818-.512 4.403" style="stroke:none;fill-rule:evenodd;fill:#3a3a3a;fill-opacity:1"/><path d="m71.434 91.68 12.718-.883q.089 1.605.153 3.203c.035.863.05 1.629.05 2.285v2.035c2.762-5.058 6.098-7.613 10.012-7.656q2.537.049 4.117 1.48c1.055.954 1.602 2.18 1.633 3.668-.027 1.243-.48 2.235-1.37 2.981-.888.75-2.052 1.137-3.5 1.152q-2.608.088-3.18-2.168-.374-1.389-.778-1.894c-.27-.34-.664-.496-1.184-.477h-.136c-1.328.114-2.594 1.176-3.785 3.184a12.9 12.9 0 0 0-1.223 3.332q-.404 1.821-.402 4.191v12.535q-.04 3.001.289 4.426.328 1.42 1.496 1.86c.773.293 1.984.457 3.625.488v1.633H71.164v-1.633c1.531.008 2.668-.137 3.406-.445q1.11-.454 1.438-1.903c.222-.969.316-2.445.297-4.426v-18.77c.062-2.792-.215-4.608-.84-5.448-.617-.836-1.965-1.211-4.031-1.125Zm43.789-.88.07 6.708q4.106-6.774 11.77-6.844c5.199-.031 8.398 2.336 9.605 7.117q2.205-3.69 5.031-5.414 2.825-1.722 6.606-1.703 5.97.034 8.793 3.93c.738.984 1.257 2.187 1.574 3.61q.47 2.133.453 5.538v14.906c-.02 1.98.078 3.457.297 4.422.223.97.7 1.606 1.441 1.907.739.308 1.871.453 3.407.445v1.633h-18.333v-1.633c1.465.008 2.551-.137 3.262-.445q1.066-.453 1.387-1.907.32-1.449.289-4.422v-14.84q.024-5.338-1.312-7.706c-.891-1.575-2.32-2.352-4.301-2.32q-3.57-.066-6.024 3.726c-1.406 2.113-2.11 4.394-2.097 6.847v14.293c-.02 1.98.074 3.457.289 4.422q.327 1.455 1.406 1.907c.719.308 1.824.453 3.312.445v1.633H124.02v-1.633c1.464.008 2.554-.137 3.261-.445q1.065-.453 1.387-1.907.32-1.449.289-4.422v-14.906c.035-6.707-1.793-10.031-5.48-9.96q-3.446.122-5.766 3.269c-1.55 2.097-2.356 4.715-2.418 7.844v13.753q-.034 3.006.289 4.454c.211.964.672 1.597 1.383 1.89q1.065.447 3.262.43v1.633h-18.332v-1.633q2.302.017 3.41-.43c.738-.293 1.218-.926 1.437-1.89q.333-1.448.297-4.454V99.813q.104-4.136-.828-5.36c-.625-.816-2.016-1.2-4.176-1.144v-1.63Zm97.14 3.098v22.637c0 1.469.055 2.692.16 3.656q.164 1.447.52 2.442c.285.754.723 1.36 1.324 1.808a3.28 3.28 0 0 0 1.988.696q2.163-.029 4.735-2.102l.945 1.695q-4.074 3.421-9.265 3.391c-3.73-.059-6.282-1.3-7.645-3.73a7.9 7.9 0 0 1-.625-1.836q-.222-1.033-.305-2.785c-.058-1.168-.086-2.747-.086-4.727V93.898h-3.855v-2.027q2.21-.088 3.746-.933 1.535-.85 2.684-2.66a14 14 0 0 0 1.48-3.067c.383-1.125.727-2.516 1.02-4.184l3.382-.34q-.069 1.365-.109 2.731c-.035.918-.055 2.031-.07 3.328a430 430 0 0 0-.024 4.984h8.188v2.168Zm0 0" style="stroke:none;fill-rule:nonzero;fill:#3a3a3a;fill-opacity:1"/><path d="M200.223 125.617v1.43c-1.98.133-2.782.129-4.86.133-1.656.004-3.363-.028-4.781-.559-.879-.332-1.367-.613-2.02-1.305-.457-.726-.75-.765-.898-2.789q-2.618 2.835-5.45 4.168c-1.89.89-3.929 1.328-6.116 1.325-3.246-.04-5.786-.934-7.618-2.696q-2.749-2.64-2.796-7.27c-.016-5.816 3.597-9.429 10.82-10.84 3.262-.632 6.957-1.058 11.094-1.284v-4.407c.035-3.527-.336-5.976-1.114-7.332q-1.166-2.043-4.16-1.949c-2.12-.047-3.633.719-4.531 2.305a6 6 0 0 0-.723 1.871q-.224 1.056-.36 2.937c-.058 1.207-.405 2.063-1.05 2.575q-.968.764-3.078.746c-3.137-.024-4.71-1.063-4.738-3.117q.017-1.8 1.113-3.43 1.09-1.634 3.086-2.875 4.224-2.606 11.09-2.57 6.989-.036 10.012 2.777c.91.855 1.578 1.953 2.003 3.285.43 1.332.641 3.035.637 5.117l-.066 5.895-.07 5.894c-.055 1.93-.079 3.153-.067 3.66q-.033 3.664.23 5.352c.176 1.125.372 1.621 1.11 2.23 1.293.743 2.398.72 3.3.723m-12.624-12.914v-5.215q-7.265.493-10.305 2.692t-2.953 6.86q.035 3.66 1.496 5.804c.98 1.43 2.305 2.16 3.984 2.191a6.8 6.8 0 0 0 3.813-1.195c1.168-.778 2.082-1.875 2.746-3.278.437-.859.75-1.902.941-3.14q.286-1.859.278-4.719m70.867 12.914v1.43c-1.98.133-2.777.137-4.86.137-1.652.004-3.359-.024-4.777-.559-.879-.332-1.367-.613-2.023-1.305-.457-.726-.746-.765-.895-2.785-1.746 1.887-3.562 3.278-5.453 4.164q-2.831 1.335-6.113 1.324-4.869-.052-7.617-2.695c-1.836-1.762-2.766-4.183-2.801-7.266q-.017-8.726 10.824-10.843c3.258-.633 6.957-1.059 11.094-1.29v-4.402c.035-3.527-.34-5.976-1.117-7.332q-1.167-2.041-4.16-1.949-3.178-.07-4.532 2.305a6.1 6.1 0 0 0-.719 1.87c-.148.704-.273 1.684-.363 2.938q-.084 1.81-1.047 2.579-.966.759-3.082.746-4.699-.035-4.734-3.121c.012-1.2.383-2.34 1.113-3.43.723-1.09 1.754-2.047 3.082-2.871 2.82-1.739 6.516-2.594 11.094-2.575 4.656-.019 7.996.903 10.012 2.782q1.365 1.283 2.004 3.281c.43 1.332.636 3.04.636 5.117l-.136 11.79c-.06 1.929-.079 3.152-.07 3.66-.024 2.44.058 4.226.23 5.355.18 1.125.375 1.617 1.113 2.226 1.289.743 2.398.715 3.297.72m-12.621-12.911v-5.215q-7.267.493-10.305 2.692c-2.031 1.464-3.012 3.754-2.953 6.863q.031 3.656 1.496 5.8 1.467 2.144 3.98 2.196a6.84 6.84 0 0 0 3.817-1.2q1.745-1.171 2.746-3.277c.438-.851.75-1.902.941-3.14.188-1.239.282-2.809.278-4.719" style="stroke:none;fill-rule:evenodd;fill:#3a3a3a;fill-opacity:1"/><path d="m397.758 42.281-.133 2.61 49.984 58.738 1.797.293.227-.113.875-1.63-21.317-71.468-3.617-2.445Zm0 0" style="stroke:none;fill-rule:nonzero;fill:#0097b9;fill-opacity:1"/><g clip-path="url(#a)"><g clip-path="url(#b)"><path d="m412.54 47.746 36.968 56.332-1.969-.324-50.05-58.887Zm0 0" style="stroke:none;fill-rule:evenodd;fill:#005874;fill-opacity:1"/></g></g><g clip-path="url(#c)"><g clip-path="url(#d)"><path d="m425.625 28.203 3.605 2.453-11.195 14.914-5.203-2.277Zm0 0" style="stroke:none;fill-rule:nonzero;fill:#2fb8e7;fill-opacity:1"/></g></g><g clip-path="url(#e)"><g clip-path="url(#f)"><path d="m412.832 43.293-.293 4.453-15.05-2.879.16-2.59Zm0 0" style="stroke:none;fill-rule:nonzero;fill:#007592;fill-opacity:1"/></g></g><g clip-path="url(#g)"><g clip-path="url(#h)"><path d="m418.031 45.574 11.223-14.941 21.59 71.531-1.102 1.852Zm0 0" style="stroke:none;fill-rule:nonzero;fill:#007592;fill-opacity:1"/></g></g><path d="m477.977 26.852 32.32 14.882.058 4.2-53.043 80.48-2.421.64-.356-.163-.758-1.817 21.38-96.656Zm0 0" style="stroke:none;fill-rule:nonzero;fill:#80b13a;fill-opacity:1"/><g clip-path="url(#i)"><g clip-path="url(#j)"><path d="m510.469 45.926-53 80.652-2.711.79 34.066-79.598Zm0 0" style="stroke:none;fill-rule:nonzero;fill:#6e9123;fill-opacity:1"/></g></g><g clip-path="url(#k)"><g clip-path="url(#l)"><path d="m482.719 44.41-28.266 82.707-.797-2.027 21.465-96.754Zm0 0" style="stroke:none;fill-rule:nonzero;fill:#3f7937;fill-opacity:1"/></g></g><g clip-path="url(#m)"><g clip-path="url(#n)"><path d="m510.383 41.734.086 4.192-21.645 1.847-1.222-5.742Zm0 0" style="stroke:none;fill-rule:nonzero;fill:#a5c550;fill-opacity:1"/></g></g><g clip-path="url(#o)"><g clip-path="url(#p)"><path d="m487.605 42.031-4.886 2.371-7.602-16.074 2.79-1.578Zm0 0" style="stroke:none;fill-rule:nonzero;fill:#5d8b27;fill-opacity:1"/></g></g><path d="m428.605 3.953 1.286-2.484 41.382-.45 2.672 2.782-19.824 66.347-1.258.73-.039-.003-1.36-.914Zm0 0" style="stroke:none;fill-rule:nonzero;fill:#d81936;fill-opacity:1"/><g clip-path="url(#q)"><g clip-path="url(#r)"><path d="m447.617 8.414-2.984 3.527-16.168-8.066 1.305-2.453Zm0 0" style="stroke:none;fill-rule:nonzero;fill:#af2c35;fill-opacity:1"/></g></g><g clip-path="url(#s)"><g clip-path="url(#t)"><path d="m428.46 3.875 16.173 8.066 8.203 59.07-1.438-.976Zm0 0" style="stroke:none;fill-rule:nonzero;fill:#762624;fill-opacity:1"/></g></g><g clip-path="url(#u)"><g clip-path="url(#v)"><path d="m452.414 11.95 21.606-8.177-19.797 66.465-1.36.774Zm0 0" style="stroke:none;fill-rule:nonzero;fill:#b22b37;fill-opacity:1"/></g></g><g clip-path="url(#w)"><g clip-path="url(#x)"><path d="m447.621 8.414 4.793 3.54 21.606-8.18-2.704-2.77Zm0 0" style="stroke:none;fill-rule:nonzero;fill:#dc505e;fill-opacity:1"/></g></g></svg>