<?xml version="1.0" encoding="UTF-8" standalone="no"?>
<svg
   version="1.1"
   width="8.8168in"
   height="3.2538in"
   viewBox="0 0 634.8081 234.2744"
   id="svg1"
   sodipodi:docname="Qris.cdr"
   xmlns:inkscape="http://www.inkscape.org/namespaces/inkscape"
   xmlns:sodipodi="http://sodipodi.sourceforge.net/DTD/sodipodi-0.dtd"
   xmlns="http://www.w3.org/2000/svg"
   xmlns:svg="http://www.w3.org/2000/svg">
  <defs
     id="defs1" />
  <sodipodi:namedview
     id="namedview1"
     pagecolor="#ffffff"
     bordercolor="#000000"
     borderopacity="0.25"
     inkscape:showpageshadow="2"
     inkscape:pageopacity="0.0"
     inkscape:pagecheckerboard="0"
     inkscape:deskcolor="#d1d1d1"
     inkscape:document-units="in" />
  <path
     d="  M608.8112,143.5875 L608.8112,123.4248 L608.8112,83.1296 L548.3533,83.1296 L508.0581,83.1296 L508.0581,62.9669 L608.8112,62.9669 L608.8112,22.6717 L508.0581,22.6717 L447.6002,22.6717 L447.6002,62.9669 L447.6002,83.1296 L447.6002,123.4248 L508.0581,123.4248 L548.3533,123.4248 L548.3533,143.5875 L447.6002,143.5875 L447.6002,183.8827 L548.3533,183.8827 L608.8112,183.8827 L608.8112,143.5875 Z Z M624.7418,130.9821 L624.7418,196.4882 C624.7418,197.8183 624.1977,199.1181 623.2606,200.0552 C622.3235,200.9923 621.0237,201.5364 619.6936,201.5364 L554.1875,201.5364 L554.1875,211.6027 L629.7598,211.6027 C631.0899,211.6027 632.3898,211.0586 633.3269,210.1215 C634.2640,209.1844 634.8081,207.8845 634.8081,206.5544 L634.8081,130.9821 L624.7418,130.9821 Z Z M80.6207,0.0000 L5.0483,0.0000 C3.7182,0.0000 2.4184,0.5441 1.4813,1.4812 C0.5442,2.4183 0.0000,3.7182 0.0000,5.0482 L0.0000,80.6206 L10.0663,80.6206 L10.0663,15.1145 C10.0663,13.7844 10.6104,12.4846 11.5475,11.5475 C12.4846,10.6104 13.7845,10.0662 15.1145,10.0662 L80.6207,10.0662 L80.6207,0.0000 Z Z M145.3106,234.2744 L185.6058,234.2744 L185.6058,143.5875 L145.3106,143.5875 L145.3106,234.2744 Z Z M180.5878,22.6717 L84.8527,22.6717 L84.8527,62.9669 L145.3106,62.9669 L145.3106,123.4248 L185.6058,123.4248 L185.6058,27.6897 C185.6058,26.3596 185.0617,25.0598 184.1246,24.1227 C183.1875,23.1856 181.8877,22.6415 180.5576,22.6415 L180.5878,22.6717 Z Z M64.7202,22.6717 L29.4431,22.6717 C28.1130,22.6717 26.8131,23.2158 25.8760,24.1529 C24.9389,25.0900 24.3948,26.3899 24.3948,27.7200 L24.3948,178.8647 C24.3948,180.1948 24.9389,181.4946 25.8760,182.4317 C26.8131,183.3688 28.1130,183.9130 29.4431,183.9130 L125.1781,183.9130 L125.1781,143.6178 L64.7202,143.6178 L64.7202,22.7019 L64.7202,22.6717 Z Z M84.8830,123.4248 L125.1781,123.4248 L125.1781,83.1296 L84.8830,83.1296 L84.8830,123.4248 Z Z M94.9492,93.1959 L94.9492,93.1959 L115.1119,93.1959 L115.1119,113.3586 L94.9492,113.3586 L94.9492,93.1959 Z Z M205.7988,22.6717 L205.7988,62.9669 L326.7146,62.9669 L326.7146,83.1296 L246.0940,83.1296 L205.7988,83.1296 L205.7988,123.4248 L205.7988,183.8827 L246.0940,183.8827 L246.0940,124.0294 L306.5519,183.8827 L367.0098,183.8827 L303.9219,123.4248 L326.6844,123.4248 L366.9795,123.4248 L366.9795,83.1296 L366.9795,62.9669 L366.9795,22.6717 L326.6844,22.6717 L205.7685,22.6717 L205.7988,22.6717 Z Z M387.1725,183.8827 L427.4677,183.8827 L427.4677,22.6717 L387.1725,22.6717 L387.1725,183.8827 Z"
     style="fill-rule: evenodd; fill: #000000; "
     id="path1" />
</svg>
