<svg xmlns="http://www.w3.org/2000/svg" width="103" height="20" viewBox="0 0 103 20" fill="none"><path d="M50.8054 20C50.7266 19.8276 50.7266 19.6379 50.7266 19.4569C50.7266 16.1293 50.7266 12.8017 50.7266 9.46552C50.7266 8.88793 50.7266 8.88793 51.3049 8.88793C51.3224 8.88793 51.3312 8.88793 51.3487 8.88793C52.1023 8.88793 52.1023 8.88793 52.1549 9.66379C53.0837 9.02586 54.0826 8.75862 55.178 8.9569C56.282 9.15517 57.132 9.73276 57.7279 10.6724C58.6041 12.0603 58.3938 13.9224 57.2372 15.1035C55.9228 16.4483 54.2228 16.5948 52.2074 15.5345C52.0848 15.6121 52.1373 15.7414 52.1373 15.8448C52.1286 17.0776 52.1373 18.3017 52.1373 19.5345C52.1373 19.7155 52.1549 19.9052 51.9446 20C51.5678 20 51.1822 20 50.8054 20ZM54.5032 14.8707C55.8176 14.8707 56.8604 13.8448 56.8604 12.5603C56.8516 11.3017 55.8089 10.2845 54.5208 10.2672C53.2239 10.2586 52.1373 11.3017 52.1373 12.5603C52.1286 13.8362 53.1976 14.8707 54.5032 14.8707Z" fill="#EF532F"></path><path d="M9.83167 17.6121C7.23795 17.6121 4.63546 17.5862 2.04174 17.6293C0.885084 17.6466 -0.00869869 16.7759 6.38785e-05 15.6207C0.0438767 11.4741 0.017589 7.32759 0.017589 3.18103C0.017589 1.97414 0.630969 1.27586 1.84897 1.15517C3.93446 0.956897 6.02871 0.793104 8.12297 0.612069C10.3136 0.422414 12.5043 0.232759 14.6949 0.0431035C14.8964 0.0258621 15.098 0 15.3083 0C15.7902 0 16.1232 0.258621 16.1582 0.732759C16.1933 1.18966 16.1845 1.64655 16.167 2.10345C16.1582 2.37931 15.9918 2.50862 15.7114 2.50862C15.2294 2.50862 14.7475 2.50862 14.2655 2.50862C10.4275 2.50862 6.58952 2.50862 2.75151 2.50862C2.45358 2.50862 2.09432 2.43966 2.05051 2.87931C2.01546 3.2069 2.33091 3.56035 2.7077 3.62931C2.86542 3.65517 3.02315 3.64655 3.18964 3.64655C7.95648 3.64655 12.7321 3.64655 17.4989 3.64655C18.1999 3.64655 18.8308 3.80172 19.2777 4.37931C19.5318 4.7069 19.6545 5.07759 19.6457 5.5C19.637 8.91379 19.6457 12.3362 19.6457 15.75C19.6457 16.8362 18.8746 17.6035 17.7443 17.6035C15.1155 17.6207 12.478 17.6121 9.83167 17.6121ZM9.97187 15.6293C10.4889 15.6466 10.9883 15.5517 11.4703 15.3621C12.4429 14.9828 13.03 14.2845 13.1702 13.2586C13.3104 12.2155 12.8285 11.4655 11.9697 10.9138C11.295 10.4828 10.5502 10.1983 9.78786 9.9569C9.2621 9.78448 8.74511 9.58621 8.32451 9.21552C7.68484 8.64655 7.65855 7.81897 8.26317 7.21552C8.53481 6.93966 8.87655 6.77586 9.25334 6.7069C10.2786 6.51724 11.2162 6.76724 12.0836 7.30173C12.3728 7.48276 12.4517 7.28448 12.5305 7.11207C12.6182 6.93966 12.9249 6.75862 12.5656 6.55173C11.4177 5.88793 10.1997 5.55172 8.88531 5.87931C7.84256 6.13793 7.08022 6.75862 6.86992 7.84483C6.66838 8.92242 7.273 9.9138 8.44718 10.4224C9.06932 10.6983 9.71775 10.9138 10.3574 11.1466C10.9007 11.3362 11.4089 11.5776 11.7945 12C12.4166 12.6638 12.3553 13.5776 11.6455 14.1552C11.2687 14.4655 10.8131 14.6121 10.3224 14.6724C9.20076 14.8103 8.22812 14.4569 7.3431 13.819C7.07146 13.6207 6.91373 13.6207 6.71219 13.9052C6.51942 14.181 6.43179 14.3362 6.78229 14.5862C7.74618 15.2759 8.80645 15.5862 9.97187 15.6293Z" fill="#EF502D"></path><path d="M77.3301 10.3966C77.3301 8.65517 77.3301 6.91379 77.3301 5.17241C77.3301 4.57759 77.4177 4.49138 78.0398 4.49138C79.1877 4.49138 80.3444 4.49138 81.4923 4.49138C83.6304 4.49138 85.3741 6.17241 85.3916 8.25C85.4092 10.3276 83.7092 12.0345 81.5624 12.069C80.7913 12.0862 80.0202 12.0862 79.2491 12.0603C78.9249 12.0517 78.8022 12.1207 78.8109 12.4741C78.8372 13.5172 78.8197 14.5603 78.8197 15.6034C78.8197 16.1983 78.7058 16.3017 78.0661 16.3017C77.4528 16.3017 77.3388 16.1983 77.3388 15.6293C77.3301 13.8793 77.3301 12.1379 77.3301 10.3966ZM78.8197 8.23276C78.8197 8.90517 78.8372 9.57759 78.8109 10.25C78.8022 10.5259 78.8986 10.5776 79.1527 10.5776C79.9238 10.5603 80.6949 10.5776 81.466 10.569C82.7979 10.5517 83.867 9.5431 83.8845 8.2931C83.9108 7.02586 82.8505 5.97414 81.5011 5.93966C80.7037 5.92241 79.8975 5.93965 79.1001 5.93103C78.8635 5.93103 78.8022 6 78.8109 6.22414C78.8285 6.88793 78.8197 7.56034 78.8197 8.23276Z" fill="#EF502D"></path><path d="M28.2858 4.53448C29.5389 4.50862 30.7043 4.80173 31.7733 5.43966C32.0187 5.58621 32.0888 5.76724 31.9135 6.00862C31.896 6.03448 31.8785 6.06035 31.8697 6.07759C31.3966 6.79311 31.4053 6.78448 30.643 6.40517C29.7842 5.97414 28.8817 5.74138 27.9003 5.92242C27.6374 5.97414 27.4008 6.06897 27.173 6.19828C26.0777 6.82759 26.0163 8.03449 27.0591 8.75C27.5498 9.09483 28.1194 9.27586 28.6889 9.44828C29.5389 9.7069 30.3713 10.0172 31.1249 10.4828C32.1326 11.1035 32.7548 11.9483 32.6584 13.1724C32.5532 14.5431 31.8347 15.5259 30.5115 15.9655C28.4173 16.6552 26.4983 16.2069 24.7458 14.931C24.5179 14.7672 24.5179 14.6035 24.6669 14.3879C25.3241 13.4397 25.1488 13.5345 26.0163 14.0776C27.2168 14.8362 28.5137 15.1724 29.9157 14.6638C30.7481 14.3621 31.2213 13.7328 31.195 13.0086C31.1775 12.4483 30.8445 12.0517 30.4151 11.7241C29.9507 11.3621 29.4074 11.1552 28.8466 10.9914C28.1632 10.7845 27.4884 10.569 26.84 10.2672C25.8937 9.83621 25.1313 9.2069 24.886 8.15517C24.5442 6.6638 25.4643 5.24138 27.0678 4.72414C27.4797 4.61207 27.874 4.53448 28.2858 4.53448Z" fill="#EF532F"></path><path d="M35.1818 9.56035C36.1545 8.94828 37.1271 8.77586 38.1699 9.02586C39.7033 9.38793 40.8074 10.7586 40.8162 12.3017C40.8249 13.4741 40.8074 14.6466 40.8249 15.819C40.8337 16.1724 40.6935 16.2586 40.3693 16.25C39.1863 16.2241 39.3879 16.3879 39.3703 15.2759C39.3616 14.2759 39.3879 13.2759 39.3616 12.2759C39.3441 11.2241 38.6168 10.4397 37.5828 10.319C36.4875 10.1897 35.5586 10.75 35.2607 11.7155C35.1818 11.9828 35.1731 12.25 35.1731 12.5172C35.1731 13.6035 35.1643 14.6897 35.1818 15.7759C35.1906 16.1293 35.0767 16.2586 34.7087 16.25C33.552 16.2241 33.7273 16.3535 33.7273 15.2931C33.7185 11.8793 33.736 8.4569 33.7185 5.0431C33.7185 4.62069 33.8499 4.5 34.2705 4.50862C35.3571 4.53448 35.1731 4.44827 35.1818 5.40517C35.1906 6.75862 35.1818 8.12069 35.1818 9.56035Z" fill="#EF532F"></path><path d="M91.7354 9.85345C91.753 9.83621 91.7793 9.81034 91.7793 9.7931C91.8494 8.93965 92.0684 8.78448 92.9272 8.93103C93.1988 8.97414 93.0936 9.16379 93.0936 9.2931C93.1024 10.7759 93.1024 12.2672 93.1024 13.75C93.1024 14.4483 93.0849 15.1552 93.1112 15.8535C93.1287 16.1983 92.9973 16.2845 92.6906 16.2328C92.6029 16.2241 92.5153 16.2328 92.4277 16.2328C91.8932 16.2328 91.7968 16.1293 91.788 15.6121C91.788 15.5172 91.788 15.4138 91.788 15.2414C90.6576 16.1293 89.4397 16.4569 88.0815 16.1035C87.2227 15.8793 86.5217 15.4052 86.0047 14.6983C84.9883 13.319 85.0759 11.4569 86.1975 10.2328C87.6083 8.67241 89.4484 8.55172 91.7354 9.85345ZM91.4638 12.5345C91.455 11.3017 90.3773 10.2931 89.0716 10.3103C87.8098 10.319 86.7145 11.3534 86.7145 12.5431C86.7057 13.7672 87.8361 14.8535 89.1067 14.8535C90.386 14.8535 91.4726 13.7845 91.4638 12.5345Z" fill="#EF532F"></path><path d="M72.0368 13.1035C71.2481 13.1035 70.4595 13.1207 69.6709 13.0948C69.2327 13.0776 69.2678 13.2328 69.3992 13.5345C69.8286 14.4741 70.9677 15.0517 72.1244 14.9138C72.7728 14.8362 73.3774 14.6379 73.8769 14.2069C74.131 13.9914 74.28 14.0345 74.464 14.3017C75.0248 15.1121 75.0073 15.2414 74.1135 15.7155C72.3259 16.6724 69.5219 16.5172 68.2864 14.4138C67.5153 13.1035 67.6555 11.3879 68.6544 10.1983C69.6183 9.04311 71.1693 8.61207 72.5976 9.09483C74.0259 9.57759 75.016 10.9397 75.0511 12.4741C75.0599 12.9569 74.9372 13.0862 74.4377 13.0948C73.6491 13.1035 72.8429 13.1035 72.0368 13.1035ZM69.3554 11.7241C70.7136 11.7241 72.0105 11.7241 73.2986 11.7241C73.6316 11.7241 73.4651 11.5259 73.395 11.4138C72.8867 10.6207 72.1594 10.2155 71.1956 10.3017C70.3193 10.3793 69.7234 10.8621 69.3554 11.7241Z" fill="#EF532F"></path><path d="M63.7039 13.1034C62.889 13.1034 62.074 13.1121 61.2591 13.0948C60.9174 13.0862 60.8999 13.1983 61.0138 13.4741C61.4081 14.4397 62.5998 15.0603 63.7827 14.9052C64.4312 14.819 65.027 14.6207 65.5265 14.1897C65.7718 13.9828 65.912 14.0431 66.0873 14.2759C66.6569 15.0603 66.6306 15.2414 65.7718 15.7069C64.0544 16.6379 61.3117 16.5517 60.0061 14.5517C59.0247 13.0345 59.3314 10.9397 60.7246 9.76724C62.1003 8.61206 64.0456 8.61206 65.4389 9.80172C66.2888 10.5259 66.6744 11.4741 66.7007 12.569C66.7094 12.9397 66.4904 13.1034 66.1223 13.1034C65.3074 13.0948 64.51 13.1034 63.7039 13.1034ZM65.1672 11.7241C64.8868 11.0776 64.4575 10.6724 63.8704 10.4397C62.8451 10.0259 61.6009 10.4655 61.1364 11.3965C61.0313 11.6034 60.97 11.7328 61.3029 11.7328C62.5647 11.7155 63.8266 11.7241 65.1672 11.7241Z" fill="#EF532F"></path><path d="M98.8154 13.1983C99.3674 12.3017 99.8932 11.4397 100.419 10.569C100.708 10.0948 101.006 9.62069 101.286 9.12931C101.4 8.93104 101.523 8.83621 101.768 8.85345C102.031 8.87069 102.294 8.85345 102.557 8.86207C103.013 8.87069 103.109 9.03448 102.881 9.42241C102.277 10.431 101.663 11.4397 101.059 12.4397C99.6216 14.819 98.1845 17.1983 96.7562 19.5862C96.6072 19.8362 96.4495 19.9655 96.1428 19.931C95.8975 19.9052 95.6433 19.931 95.398 19.9224C94.9599 19.9138 94.8722 19.7759 95.1001 19.3966C95.6433 18.4655 96.1954 17.5431 96.7474 16.6207C97.0541 16.1034 97.3433 15.5776 97.6763 15.069C97.834 14.8276 97.834 14.6638 97.6763 14.4138C96.6423 12.7759 95.6171 11.1293 94.6006 9.48276C94.5042 9.32759 94.3377 9.18103 94.4604 8.98276C94.5831 8.7931 94.8021 8.87931 94.9774 8.84483C95.7835 8.69828 96.2655 9.01724 96.651 9.73276C97.2469 10.8362 97.9742 11.8793 98.6489 12.9483C98.6752 13.0345 98.7278 13.0948 98.8154 13.1983Z" fill="#EF532F"></path><path d="M41.9287 12.5948C41.9287 10.5431 43.6462 8.91379 45.7842 8.92241C47.9223 8.93103 49.5872 10.5603 49.5872 12.6379C49.5872 14.6379 47.8785 16.2672 45.7842 16.2759C43.6462 16.2845 41.9287 14.6379 41.9287 12.5948ZM43.357 12.6034C43.3658 13.8621 44.4436 14.8879 45.758 14.8879C47.0986 14.8879 48.1764 13.8534 48.1677 12.569C48.1589 11.2931 47.0636 10.2759 45.7229 10.2845C44.4085 10.3103 43.3482 11.3448 43.357 12.6034Z" fill="#EF532F"></path></svg>